<svg width="28" height="23" fill="none" xmlns="http://www.w3.org/2000/svg"><g clip-path="url(#clip0)"><path d="M26.172 1.385H1.797a.936.936 0 00-.938.937v18.75c0 .519.42.938.938.938h24.375a.937.937 0 00.937-.938V2.322a.937.937 0 00-.937-.937zM25 4.63V19.9H2.969V4.63L2.16 4l1.152-1.48 1.253.976h18.841l1.254-.976L25.811 4 25 4.63zm-1.594-1.137l-9.422 7.324-9.421-7.324-1.254-.975-1.152 1.479.809.63 10.008 7.781a1.64 1.64 0 002.012 0L25 4.631l.809-.63-1.152-1.48-1.25.973z" fill="#EF2779"/></g><defs><clipPath id="clip0"><path fill="#fff" transform="translate(.86 .697)" d="M0 0h27v22H0z"/></clipPath></defs></svg>