<svg xmlns="http://www.w3.org/2000/svg" viewBox="0 0 48 48" width="96" height="96"><linearGradient id="q17mbB32E_FbIzPpfjq_Ta" x1="16.309" x2="23.023" y1="1.101" y2="19.546" gradientUnits="userSpaceOnUse"><stop offset="0" stop-color="#f44f5a"/><stop offset=".443" stop-color="#ee3d4a"/><stop offset="1" stop-color="#e52030"/></linearGradient><path fill="url(#q17mbB32E_FbIzPpfjq_Ta)" d="M26 17h-8a7 7 0 110-14h8v14z"/><linearGradient id="q17mbB32E_FbIzPpfjq_Tb" x1="15.64" x2="22.314" y1="14.636" y2="32.971" gradientUnits="userSpaceOnUse"><stop offset="0" stop-color="#ae4cd5"/><stop offset="1" stop-color="#9331bf"/></linearGradient><path fill="url(#q17mbB32E_FbIzPpfjq_Tb)" d="M25 31h-7a7 7 0 110-14h7v14z"/><linearGradient id="q17mbB32E_FbIzPpfjq_Tc" x1="14.81" x2="21.821" y1="26.357" y2="45.617" gradientUnits="userSpaceOnUse"><stop offset="0" stop-color="#33c481"/><stop offset="1" stop-color="#21a366"/></linearGradient><path fill="url(#q17mbB32E_FbIzPpfjq_Tc)" d="M18 45a7 7 0 110-14h7v7a7 7 0 01-7 7z"/><linearGradient id="q17mbB32E_FbIzPpfjq_Td" x1="27.498" x2="34.119" y1=".512" y2="18.702" gradientUnits="userSpaceOnUse"><stop offset="0" stop-color="#f09ca2"/><stop offset="1" stop-color="#eb6773"/></linearGradient><path fill="url(#q17mbB32E_FbIzPpfjq_Td)" d="M32 17h-7V3h7a7 7 0 110 14z"/><linearGradient id="q17mbB32E_FbIzPpfjq_Te" x1="28.714" x2="34.857" y1="14.972" y2="31.85" gradientUnits="userSpaceOnUse"><stop offset="0" stop-color="#32bdef"/><stop offset="1" stop-color="#1ea2e4"/></linearGradient><circle cx="32" cy="24" r="7" fill="url(#q17mbB32E_FbIzPpfjq_Te)"/></svg>